<svg xmlns="http://www.w3.org/2000/svg" version="1.1" xmlns:xlink="http://www.w3.org/1999/xlink" xmlns:svgjs="http://svgjs.dev/svgjs" width="1440" height="560" preserveAspectRatio="none" viewBox="0 0 1440 560"><g mask="url(&quot;#SvgjsMask1558&quot;)" fill="none"><rect width="1440" height="560" x="0" y="0" fill="url(&quot;#SvgjsLinearGradient1559&quot;)"></rect><path d="M1440 0L894.29 0L1440 186.11z" fill="rgba(255, 255, 255, .1)"></path><path d="M894.29 0L1440 186.11L1440 248.77L859.64 0z" fill="rgba(255, 255, 255, .075)"></path><path d="M859.64 0L1440 248.77L1440 432.09000000000003L567.5899999999999 0z" fill="rgba(255, 255, 255, .05)"></path><path d="M567.5899999999999 0L1440 432.09000000000003L1440 436.03000000000003L290.74999999999994 0z" fill="rgba(255, 255, 255, .025)"></path><path d="M0 560L696.64 560L0 399.96000000000004z" fill="rgba(0, 0, 0, .1)"></path><path d="M0 399.96000000000004L696.64 560L930.96 560L0 352.13000000000005z" fill="rgba(0, 0, 0, .075)"></path><path d="M0 352.13L930.96 560L940.37 560L0 213.54z" fill="rgba(0, 0, 0, .05)"></path><path d="M0 213.53999999999996L940.37 560L1209.51 560L0 201.68999999999997z" fill="rgba(0, 0, 0, .025)"></path></g><defs><mask id="SvgjsMask1558"><rect width="1440" height="560" fill="#ffffff"></rect></mask><linearGradient x1="15.28%" y1="-39.29%" x2="84.72%" y2="139.29%" gradientUnits="userSpaceOnUse" id="SvgjsLinearGradient1559"><stop stop-color="#0e2a47" offset="0"></stop><stop stop-color="rgba(23, 62, 121, 1)" offset="1"></stop></linearGradient></defs></svg>